<?xml version="1.0" encoding="UTF-8"?>
<svg id="Layer_1" data-name="Layer 1" xmlns="http://www.w3.org/2000/svg" viewBox="0 0 600.54 729.69">
  <defs>
    <style>
      .cls-1 {
        stroke: #111;
      }

      .cls-1, .cls-2 {
        stroke-width: 3px;
      }

      .cls-1, .cls-2, .cls-3 {
        fill: none;
      }

      .cls-4 {
        fill: #fff;
      }

      .cls-4, .cls-5 {
        stroke-width: 0px;
      }

      .cls-2, .cls-3 {
        stroke: #fff;
      }

      .cls-3 {
        stroke-width: 5px;
      }

      .cls-5 {
        fill: #111;
      }
    </style>
  </defs>
  <g id="triple-badge">
    <rect class="cls-4" x="183.19" y="373.23" width="139" height="95" rx="47.5" ry="47.5" transform="translate(-223.49 301.91) rotate(-45)"/>
    <rect class="cls-5" x="149.25" y="373.23" width="139" height="95" rx="47.5" ry="47.5" transform="translate(-233.43 277.91) rotate(-45)"/>
    <rect class="cls-4" x="115.31" y="373.23" width="139" height="95" rx="47.5" ry="47.5" transform="translate(-243.37 253.91) rotate(-45)"/>
    <path class="cls-1" d="M151.93,430.28v23.33h23.33M218.04,410.83v-23.33h-23.33M184.81,397.4v46.67"/>
  </g>
  <path id="rectangulo-derecho" class="cls-5" d="M316.83,567.6l216.54-216.54,67.18,67.18-216.54,216.54-67.18-67.18Z"/>
  <path id="badge-izquierdo" class="cls-5" d="M29.9,508.48h0c-39.87,39.87-39.87,104.51,0,144.38l46.93,46.93c39.87,39.87,104.51,39.87,144.38,0h0c39.87-39.87,39.87-104.51,0-144.38l-46.93-46.93c-39.87-39.87-104.51-39.87-144.38,0Z"/>
  <path id="raya-blanca" class="cls-2" d="M88.66,1.06l135.58,135.73c12.48,12.49,12.48,32.74,0,45.23L36.42,370.04c-12.48,12.49-12.48,32.74,0,45.23l152.63,152.79"/>
  <path id="raya-negra" class="cls-1" d="M292.33,321.06l60.87,60.87c12.5,12.5,12.5,32.76,0,45.25l-77.74,77.75c-12.5,12.5-12.5,32.76,0,45.25l69.87,69.87"/>
  <g id="flechas">
    <path id="negras" class="cls-1" d="M335.3,508.13l-12.14,12.15,14.26,14.26v12.67h12.67l13.73,13.73,12.14-12.15M360.65,482.79l-12.14,12.15,14.26,14.26v12.67h12.67l13.73,13.73,12.14-12.15M386,457.44l-12.14,12.14,14.26,14.26v12.67h12.67l13.73,13.73,12.14-12.15M411.34,432.1l-12.14,12.15,14.26,14.26v12.67h12.67l13.73,13.73,12.14-12.14"/>
    <path id="blanca" class="cls-3" d="M436.69,406.75l-12.14,12.15,14.26,14.26v12.67h12.67l13.73,13.73,12.14-12.15"/>
  </g>
</svg>